<?xml version="1.0" encoding="UTF-8"?>
<svg width="59.596mm" height="59.7mm" version="1.1" viewBox="0 0 59.596 59.7" xmlns="http://www.w3.org/2000/svg"><g id="skull"><path d="m2.291 25.62c0.62372-0.1517 0.77082-0.6597 0.99872-1.2534-0.52811 0.3616-0.6985 0.85796-0.99872 1.2534m1.6775 0.04974c0.018697-0.01164 0.039159-0.0194 0.052211-0.03387 0.3242-0.35631 0.56868-0.76306 0.74331-1.2107 0.016581-0.04198-0.030339-0.10901-0.047625-0.16475-0.037395 0.01199-0.092076 0.01235-0.10971 0.03775-0.25859 0.37889-0.51964 0.75671-0.76165 1.1462-0.050447 0.08149 0.00141 0.19438 0.12347 0.22543m3.8626 4.149c0.0508-0.08432 0.098426-0.13229 0.10936-0.18733 0.031397-0.16122 0.11959-0.29386 0.1845-0.43886 0.25471-0.5708 0.52846-1.1487 0.49636-1.7921-0.011289-0.22684-0.037747-0.42863 0.0635-0.64629 0.073731-0.15769 0.1771-0.40393 0.00917-0.51012-0.21026-0.13229-0.33055 0.15452-0.4953 0.24659-0.085726 0.04833-0.13406 0.14323-0.17392 0.24236-0.16651 0.41699-0.4505 0.76024-0.6985 1.1289-0.25859 0.38418-0.60608 0.70732-0.79058 1.1402-0.036689 0.08608-0.11077 0.24906 0.00811 0.26423 0.46532 0.05891 0.91441 0.133 1.2873 0.55245m-4.45-3.5835c-0.080434 0.36372-0.45614 0.45967-0.61525 0.75707-0.36654 0.68545-0.081492 1.2873 0.21026 1.8831 0.12735 0.2607 0.30057 0.26882 0.45861 0.01587 0.39652-0.635 0.90629-1.1935 1.3032-1.8147 0.50659-0.7927 0.95251-1.6242 1.5476-2.3594 0.12559-0.15487 0.11606-0.32103-0.015522-0.43427-0.127-0.10936-0.20885 0.0635-0.29775 0.12982-0.079376 0.05962-0.16369 0.13088-0.20743 0.21625-0.40852 0.8001-1.1285 1.3804-1.5289 2.1918-0.13758 0.27976-0.4124 0.49566-0.63994 0.72532-0.084667 0.08537-0.21767 0.12665-0.33408 0.03069-0.095251-0.07832-0.052211-0.17568-0.033514-0.27905 0.0635-0.34572 0.25612-0.6724 0.15275-1.0626m0.7038 3.5712c0.29281-0.18521 0.7673-0.0028 1.034-0.34643 0.69074-0.89077 1.39-1.7738 1.9068-2.7898 0.32703-0.64276 0.42651-1.3709 0.82268-1.9876 0.13511-0.21061 0.20885-0.43533 0.47943-0.50236 0.13829-0.03457 0.2346-0.10936 0.12277-0.25612-0.084667-0.11113-0.17427-0.03881-0.25929 0.02434-0.46249 0.34502-0.83044 0.76977-1.1666 1.2411-0.63359 0.88795-1.3342 1.729-1.9092 2.6578-0.19368 0.31292-0.38735 0.61207-0.65547 0.86678-0.25188 0.23883-0.45967 0.51541-0.5835 0.84702-0.060325 0.16193 0.00176 0.23107 0.20849 0.24518m20.989 24.977c0 0.27094-6e-3 0.49601 0.0035 0.72073 0.0028 0.06597-0.03351 0.19403 0.09701 0.17568 0.08749-0.0127 0.09596-0.11783 0.10195-0.19862 0.0028-0.04057 0.0046-0.08361-0.0053-0.12242-0.17427-0.66852 0.32456-1.1233 0.53905-1.6665 0.03916-0.09843 0.17568-0.16581 0.27799-0.23072 0.63077-0.40146 1.2132-0.87137 1.8768-1.2323 0.24871-0.13547 0.55386-0.3242 0.66781-0.75424 0.14217-0.5387 0.61878-0.99942 1.118-1.2548 0.56974-0.29104 1.2185-0.45826 1.8394-0.62724 0.88336-0.2406 1.8362-0.12771 2.728-0.39829 0.03775-0.01129 0.08537-0.01446 0.12171-0.0018 0.47802 0.16722 0.95145-0.0028 1.4266-0.01094 0.63218-0.01058 1.2668 0.03881 1.8965 3.53e-4 0.71685-0.04339 1.3681-0.40288 2.0966-0.4692 0.35066-0.0321 0.68051-0.34149 1.01-0.54152 0.28081-0.17039 0.49601-0.40041 0.68792-0.68051 0.24554-0.35807 0.56515-0.66993 0.87807-0.97614 0.6096-0.59585 1.4076-0.74578 2.201-0.74789 0.50377-0.0014 1.0555 0.08149 1.4062 0.5902 0.20638 0.29916 0.51188 0.55386 0.83644 0.68334 0.3295 0.13194 0.44203 0.34608 0.48578 0.63218 0.05115 0.3362 0.21731 0.61313 0.37536 0.89959 0.07867 0.14252 0.17216 0.19121 0.34608 0.17286 0.24836-0.02575 0.4879-0.04692 0.68933-0.21202 0.68933-0.56551 1.3508-1.1769 1.827-1.923 0.73308-1.149 1.5646-2.2327 2.2345-3.4234 0.29775-0.52917 0.73061-0.97932 0.92076-1.5745 0.06879-0.21484 0.33444-0.3489 0.26317-0.62477 0.42475-0.03316 0.43427-0.45579 0.60431-0.70062 0.23813-0.3429 0.60608-0.62724 0.66675-1.0707 0.03351-0.24624 0.16686-0.40217 0.31186-0.57715 0.44062-0.5327 0.92887-1.0411 1.1268-1.7279 0.1972-0.68404 0.49495-1.3321 0.6724-2.025 0.13723-0.53517 0.35278-1.0446 0.15134-1.608-0.04868-0.13547-0.03493-0.28399 0.03493-0.4184 0.11042-0.21202 0.07197-0.42863 0.0575-0.65688-0.02681-0.43392-0.16369-0.87313 0.14111-1.2972 0.18627-0.25929 0.22472-0.60361 0.1771-0.94192-0.03704-0.26317 0.0247-0.52529 0.04692-0.78705 0.04339-0.51682 0.12524-1.0372 0.05503-1.5614-0.03881-0.28963-0.09208-0.56974-0.08255-0.87701 0.01129-0.37289 0.11536-0.77153-0.01658-1.1472-0.21837-0.62407-0.29069-1.2545-0.2152-1.9188 0.04057-0.3556-0.01305-0.73519-0.21555-1.0668-0.18309-0.30022-0.33832-0.60608-0.16686-0.9772 0.0635-0.13723-0.0011-0.2914-0.09419-0.40252-0.1464-0.17427-0.15346-0.35842-0.1263-0.57221 0.02293-0.17956 0.04198-0.39053-0.02858-0.54646-0.47943-1.0615-0.32526-2.3015-0.94404-3.3207-0.0099-0.01623-0.01023-0.03951-0.01199-0.05997-0.05856-0.72179-0.43321-1.3466-0.62583-2.0278-0.03739-0.13194-0.12312-0.26635-0.22331-0.36125-0.37924-0.36019-0.58173-0.83574-0.77082-1.2929-0.3489-0.8442-0.96979-1.4954-1.4683-2.231-0.12912-0.1905-0.25718-0.45121-0.48084-0.54187-0.64943-0.26349-0.90061-0.83429-1.2051-1.3917-0.18415-0.33726-0.29175-0.71438-0.7038-0.94228-1.3039-0.72179-2.684-1.2122-4.1275-1.5452-0.17815-0.041275-0.33796-0.08502-0.50024-0.19544-0.26494-0.17992-0.53728-0.42439-0.8569-0.44309-0.93275-0.055034-1.7311-0.54293-2.6028-0.78776-0.57362-0.16087-1.161-0.34678-1.7396-0.51647-0.43145-0.12665-0.72214-0.43462-1.0901-0.61102-0.36689-0.17568-0.8562-0.053622-1.2167-0.33338-0.16898-0.13088-0.36795-0.15558-0.55069-0.23142-0.32985-0.13653-0.70097-0.038806-1.0044-0.20461-0.83291-0.45438-1.7036-0.7292-2.6635-0.67804-0.1397 0.0074084-0.28575-0.017639-0.42263-0.052564-1.8136-0.46391-3.6576-0.60184-5.5228-0.52529-0.22402 0.0091722-0.46073 0.023283-0.67275-0.034572-0.58456-0.15981-1.1733-0.14464-1.7685-0.12453-0.44556 0.01517-0.93204 0.097367-1.3293-0.04692-0.48049-0.17463-1.0153-0.1016-1.4598-0.387-0.11924-0.076553-0.27658-0.027517-0.42051-0.0014111-0.54222 0.098778-1.0922 0.16228-1.6277 0.28822-0.34643 0.081139-0.68298 0.20214-1.0167 0.36089-0.40076 0.19015-0.77294 0.50059-1.1938 0.57503-0.60714 0.10725-1.107 0.39899-1.6016 0.70485-0.43639 0.26952-0.95533 0.387-1.3452 0.71226-0.36654 0.30586-0.77929 0.52106-1.1808 0.76095-0.61137 0.36583-1.2076 0.74966-1.7367 1.2316-0.25612 0.23319-0.51718 0.46249-0.7934 0.67134-0.65829 0.49742-1.3822 0.91441-1.8934 1.5886-0.059619 0.079023-0.16228 0.12418-0.23354 0.1965-0.54293 0.54681-1.24 0.91123-1.7314 1.5289-0.40676 0.51118-0.73167 1.0679-1.0911 1.6059-0.21308 0.31821-0.40111 0.61631-0.36089 1.0068 0.023636 0.23036-0.089606 0.34925-0.25083 0.50236-0.65617 0.62336-1.3469 1.2009-1.8295 2.0073-0.52106 0.87066-0.94827 1.7392-0.96133 2.7707-0.00988 0.78917-0.29457 1.4312-0.88089 1.9921-0.37889 0.3623-0.47131 0.92993-0.56692 1.4475-0.027164 0.14746 0.056798 0.31644 0.093839 0.47449 0.057503 0.24377 0.24448 0.28716 0.42545 0.19826 0.91053-0.44627 1.8778-0.52917 2.8575-0.41593 0.6664 0.07691 1.2961 0.31115 1.6644 0.93981 0.092428 0.15734 0.19791 0.18874 0.34749 0.17463 0.22895-0.02187 0.40146-0.09384 0.5581-0.30727 0.22472-0.30657 0.68651-0.22825 0.81245 0.13088 0.20391 0.58138 0.64559 1.059 0.7172 1.6962 0.010583 0.09208 0.076553 0.19297 0.14499 0.26106 0.19509 0.19403 0.22402 0.43145 0.20285 0.68192-0.09349 1.095-0.18909 2.1897-0.2921 3.2837-0.011289 0.11818-0.041981 0.26564-0.1203 0.34078-0.31715 0.3048-0.35419 0.72214-0.47202 1.1038-0.054681 0.1771-0.13617 0.31927-0.23178 0.47661-0.26 0.42686-0.52635 0.86502-0.50483 1.4058 0.01517 0.37642 0.032103 0.70662 0.44909 0.9077 0.28364 0.13653 0.48049 0.45826 0.40182 0.77188-0.16828 0.6724 0.28399 1.1628 0.55704 1.6111 0.37359 0.61384 0.82692 1.2136 1.3018 1.7713 0.66217 0.77788 1.1966 1.6376 1.7473 2.4896 0.10266 0.1591 0.133 0.30445 0.0092 0.44662-0.13229 0.15134-0.30974 0.22049-0.49319 0.10195-0.20111-0.12982-0.42266-0.12383-0.64385-0.16122-0.64664-0.10866-1.2467-0.37077-1.8267-0.66182-0.41064-0.20638-0.52564-0.2032-0.71191 0.2099-0.032456 0.071614-0.022225 0.16157-0.047625 0.23777-0.17498 0.52423-0.78494 0.82586-1.3353 0.66358-0.49354-0.14605-0.78106-0.72814-0.68016-1.2545 0.16087-0.83962 0.2921-1.6895 0.0045862-2.5308-0.121-0.35454-0.1718-0.70979-0.15734-1.0841 0.012347-0.3108-0.044098-0.62054-0.27729-0.85232-0.17815-0.1771-0.23319-0.38241-0.19967-0.6156 0.062089-0.43039-0.13406-0.907 0.24165-1.2859 0.056445-0.05715 0.062089-0.20285 0.039511-0.29492-0.13406-0.54152 0.025047-0.98778 0.39194-1.3889 0.09137-0.10054 0.12806-0.25083 0.19121-0.37748 0.133-0.26741-0.043392-0.25541-0.22472-0.26106-0.23777-0.007761-0.37112 0.17568-0.51859 0.2988-0.26952 0.22507-0.68439 0.28046-0.85796 0.56233-0.3369 0.54857-0.96415 0.65053-1.3995 1.0344-0.12347 0.10901-0.30833 0.06491-0.47096 0.07938-0.50165 0.0441-0.901-0.21273-1.3247-0.40146-0.31186-0.13864-0.48013-0.05221-0.38982 0.25576 0.14711 0.50236 0.12947 1.0149 0.17322 1.5212 0.054328 0.63077 0.064206 1.2933-0.1711 1.8761-0.2025 0.50201-0.28716 1.0093-0.40605 1.523-0.13053 0.56515-0.058209 1.143-0.19403 1.7029-0.13194 0.54434-0.098778 1.0707 0.084314 1.6171 0.13476 0.40111 0.33408 0.4565 0.70627 0.45897 0.63324 0.0039 1.2383 0.20602 1.7015 0.64559 0.34502 0.32773 0.75213 0.58808 1.1518 0.75707 0.66076 0.27905 1.089 0.74437 1.4492 1.3003 0.81457 1.2573 0.59126 2.3358-0.2533 3.4576-0.28364 0.37606-0.50271 0.74401-0.28822 1.2986 0.1464 0.37783 0.56233 0.5073 0.62618 0.87242 0.0635 0.36266 0.05962 0.75601 0.30798 1.0368 0.26035 0.29387 0.23142 0.64453 0.254 0.9645 0.0254 0.36618 0.081845 0.72884 0.10266 1.0911 0.038806 0.67099 0.08502 1.3663-0.048684 2.0151-0.12453 0.60466-0.2981 1.2076-0.44415 1.8136-0.091723 0.37924 0.022225 0.60396 0.28258 0.85479 0.36301 0.3496 0.80822 0.35031 1.2488 0.3743 0.21943 0.01199 0.34608-0.11536 0.24589-0.36019-0.038453-0.09454-0.061031-0.19967-0.11712-0.28258-0.37359-0.55281-0.30057-1.1402-0.070556-1.699 0.11007-0.26705 0.16087-0.48966 0.066676-0.75636-0.032809-0.09278-0.061737-0.21026-0.034572-0.2981 0.24942-0.79905 0.20567-1.681 0.70485-2.4116 0.20038-0.29316 0.44415-0.41346 0.77682-0.2914 0.31503 0.11571 0.41275 0.31821 0.28681 0.68968-0.21484 0.63465-0.32632 1.2972-0.52423 1.9318-0.14323 0.45932-0.04198 0.94792-0.24095 1.3794-0.18133 0.39229-0.14535 0.80222-0.15275 1.2076-6e-3 0.30974 0.10583 0.36618 0.36724 0.20673 0.64135-0.39159 1.288-0.4625 1.9403-0.04233 0.26388 0.16969 0.37324 0.05962 0.41875-0.19473 0.01799-0.09913 0.01976-0.20567 0.0049-0.30516-0.11748-0.80963-0.05186-1.6348-0.21167-2.4405-0.11818-0.59585 0.13264-1.0072 0.64664-1.2887 0.25718-0.14076 0.70486-0.0882 0.90947 0.11677 0.37148 0.37289 0.40041 0.47555 0.13688 0.88442-0.19085 0.29634-0.36513 0.59832-0.387 0.94968-0.03422 0.5514-0.1136 1.1038-0.11324 1.6507 3.53e-4 0.47978-6e-3 0.97861 0.13194 1.4542 0.06773 0.2346 0.19862 0.46884 0.46532 0.35842 0.53517-0.22155 1.0657-0.1263 1.6037-0.08114 0.09878 0.0085 0.20108-0.03563 0.30233-0.04586 0.26952-0.02611 0.34855-0.14605 0.37007-0.43709 0.03493-0.46779-0.11712-0.91934-0.06032-1.3783 0.03316-0.26741 0.0321-0.51929-0.02223-0.78776-0.10654-0.52846-0.09137-1.0601 0.14852-1.5614 0.06526-0.13652 0.1718-0.24977 0.33514-0.20673 0.13653 0.03598 0.28293 0.11148 0.28364 0.28293 0.0018 0.34043 0.13229 0.73167 0.0374 1.0065-0.29951 0.86713 0.02258 1.7057-0.0095 2.5538-0.0085 0.22613 0.12488 0.35348 0.35666 0.18274 0.40429-0.2981 0.87242-0.47625 1.3152-0.69992 0.21414-0.10866 0.43639-0.28752 0.68016-0.2413 0.42545 0.08008 0.78141-0.08008 1.1571-0.21661 0.4124-0.14993 0.57785-0.39935 0.39159-0.79481-0.10336-0.21943-0.09666-0.41769-0.12242-0.63642-0.06244-0.52846-0.02117-1.0654-0.14993-1.5882-0.04304-0.17568-0.04868-0.36866-0.02963-0.54928 0.02611-0.25259 0.38912-0.59161 0.62901-0.59549 0.38277-0.0067 0.31856 0.33232 0.35137 0.53975 0.13441 0.84702 0.24271 1.7068 0.07056 2.5552-0.11748 0.57821 0.01552 0.88654 0.6096 1.0587 0.42192 0.12206 0.8061 0.38241 1.1522 0.67698 0.23107 0.1965 0.50836 0.11042 0.75142 0.02928 0.12277-0.04092 0.09737-0.22684 0.0448-0.33126-0.31433-0.62266-0.1083-1.2735-0.14252-1.9124-0.03493-0.653 0.27411-1.083 0.67522-1.5046 0.09666-0.1016 0.18133-0.24906 0.35102-0.12347 0.13476 0.10019 0.22895 0.21237 0.1838 0.41381-0.12524 0.55669-0.19297 1.1215-0.1457 1.6485m-0.69391 4.0425c-0.1644 0.0081-0.38947 0.0194-0.61419 0.02999-0.42828 0.02081-0.8181-0.05292-1.0781-0.44133-0.11289-0.16828-0.2794-0.23707-0.47061-0.24765-0.17039-0.0099-0.31644-0.07338-0.4565-0.16228-0.55986-0.35525-1.0897-0.23107-1.6686 0.01129-0.48049 0.20108-0.913 0.51471-1.4312 0.62407-0.10654 0.02258-0.20567 0.06844-0.24624 0.16404-0.21414 0.50271-0.70697 0.61419-1.1384 0.7292-0.58738 0.15663-1.2086 0.2667-1.8091-3.53e-4 -0.82586-0.3676-1.6545-0.70626-2.5898-0.6657-0.19085 0.0081-0.39194-0.10548-0.58068-0.18098-0.4057-0.16263-0.78247-0.2032-1.2252-0.04022-0.29422 0.10795-0.67945 0.02328-1.0118-0.03986-0.41875-0.07938-0.81316 0.0042-1.1875 0.13441-0.82162 0.2854-1.7664 0.02011-2.2225-0.71191-0.1651-0.2653-0.34714-0.49178-0.58315-0.69639-0.47519-0.4124-0.49813-1.4101-0.044803-1.8475 0.12206-0.11783 0.16298-0.24695 0.15522-0.37712-0.062795-1.0502 0.10548-2.1124-0.1651-3.1528-0.033514-0.12841-0.089253-0.22437-0.17286-0.31327-0.070909-0.075495-0.15416-0.15275-0.15205-0.25824 0.014817-0.76624-0.40076-1.3628-0.74013-2.002-0.51329-0.96803-0.66887-1.966-0.27517-3.0568 0.19262-0.53411 0.34819-1.0986 0.49636-1.6563 0.075848-0.28505-0.29104-0.92181-0.64382-1.1575-0.48472-0.32385-1.0019-0.60255-1.4309-1.0054-0.23354-0.21943-0.52564-0.18309-0.80293-0.17568-0.63395 0.017639-1.2002-0.1718-1.7166-0.52458-0.1898-0.12982-0.34255-0.30268-0.38312-0.53728-0.12524-0.72038-0.3175-1.4386-0.071262-2.1738 0.083256-0.24836 0.17251-0.49248 0.037042-0.77012-0.081139-0.16651-0.020108-0.38982 0.10266-0.52212 0.25118-0.27058 0.27305-0.59126 0.2473-0.91582-0.056445-0.70874 0.22437-1.367 0.27799-2.0595 0.043039-0.55739-0.047625-1.0961-0.15452-1.633-0.064559-0.3235-0.20497-0.63394 0.1337-0.89394 0.081845-0.062795 0.11501-0.18662 0.079728-0.28328-0.20532-0.56304 0.10195-1.0781 0.14464-1.6171 0.012347-0.15628 0.062089-0.35384 0.16898-0.45121 0.59514-0.54363 0.3041-1.1416 0.16545-1.7501-0.11077-0.48648-0.43039-0.92958-0.3168-1.4644 0.029281-0.13794-0.0254-0.29246 0.071614-0.41663 0.14076-0.17992 0.02152-0.27905-0.094545-0.40958-0.37359-0.42122-0.3489-0.93063-0.098778-1.3575 0.21273-0.36301 0.15628-0.75319 0.29281-1.1123 0.056798-0.14993-0.068087-0.28187-0.17533-0.36866-0.68263-0.54998-0.56515-1.2813-0.47237-2.0094 0.025753-0.20214 0.0635-0.40393 0.07232-0.60713 0.010231-0.22719 0.14429-0.42157 0.18733-0.61172 0.15769-0.70027 0.80469-1.1832 0.81069-1.9322 0.00106-0.1083 0.045509-0.19614 0.1136-0.27658 0.23848-0.28117 0.39829-0.58103 0.49354-0.95744 0.10266-0.40429 0.51435-0.66182 0.77294-0.99837 0.39229-0.50977 0.71226-1.07 1.143-1.5579 0.17956-0.20355 0.17216-0.61772 0.16051-0.93275-0.014464-0.38524 0.18203-0.69956 0.39547-0.9077 0.4191-0.40958 0.70168-0.92958 1.1564-1.3088 0.22719-0.18909 0.32385-0.508 0.41593-0.80434 0.13159-0.42545 0.34467-0.74366 0.86043-0.80892 0.37289-0.047272 0.53764-0.4505 0.78529-0.69498 0.41381-0.40852 0.68898-0.95815 1.2615-1.203 0.83432-1.0615 2.1188-1.5297 3.1228-2.3682 0.6791-0.56727 1.4083-1.0675 2.1527-1.5431 0.87137-0.55669 1.7512-1.1003 2.6226-1.6567 0.3549-0.22613 0.82445-0.32244 1.234-0.50201 0.4258-0.18627 0.89924-0.26564 1.2337-0.63853 0.10724-0.11959 0.28998-0.20426 0.44662-0.17745 0.63183 0.1083 1.2181-0.12383 1.8094-0.24659 0.9077-0.18874 1.8348-0.14746 2.7411-0.31574 0.21872-0.04057 0.44662 0.0098778 0.66852 0.064206 1.1959 0.2921 2.4067 0.35102 3.6386 0.3616 1.1529 0.009878 2.3209 0.014111 3.4647 0.30974 0.69886 0.18062 1.4242 0.24906 2.1587 0.28258 0.52353 0.023636 1.0732 0.097367 1.6094 0.27834 0.76448 0.25788 1.5551 0.47449 2.3453 0.65158 0.95709 0.21449 1.8877 0.49777 2.7707 0.90664 1.2016 0.55598 2.4451 0.99202 3.6922 1.4238 0.26952 0.093134 0.55669 0.06985 0.82974 0.19473 0.9197 0.42087 1.827 0.91053 2.7937 1.1751 1.4175 0.38771 2.4934 1.3536 3.761 1.9858 0.32103 0.16016 0.59902 0.43886 0.67134 0.82127 0.05186 0.27235 0.20391 0.43568 0.42122 0.56868 0.39053 0.23883 0.68334 0.56833 0.92111 0.9585 0.52811 0.86678 1.0926 1.7113 1.6203 2.5795 0.53658 0.8823 0.81528 1.8521 1.2584 2.7563 0.5842 1.1927 0.77506 2.4906 1.1469 3.7366 0.18309 0.61348 0.23037 1.2993 0.45332 1.8973 0.28364 0.75989 0.11748 1.5716 0.42686 2.3192 0.13441 0.3242 0.0575 0.72461 0.11148 1.0915 0.11536 0.78529 0.2533 1.5805 0.23354 2.3679-0.01376 0.55669 0.07373 1.0954 0.07867 1.6429 0.0025 0.27728-0.0046 0.54116-0.17956 0.8128-0.18415 0.28575-0.06032 0.67522-0.12665 1.0195-0.20108 1.0499-0.36407 2.1072-0.53622 3.1623-0.02611 0.16016-0.03387 0.32632-0.02717 0.4886 0.01588 0.37606-0.01411 0.75213-0.23707 1.0583-0.34114 0.46849-0.248 1.0485-0.45932 1.5551-0.39652 0.94933-0.7165 1.9297-1.24 2.8244-0.23213 0.39652-0.40781 0.82162-0.64488 1.2199-0.25682 0.43145-0.60325 0.80857-0.77788 1.2933-0.29386 0.81669-0.95639 1.3998-1.3864 2.1297-0.49601 0.84173-1.1324 1.5575-1.8546 2.2038-0.07761 0.0695-0.14852 0.127-0.17427 0.23636-0.121 0.514-0.47096 0.89394-0.78317 1.2926-0.09031 0.11536-0.14499 0.23918-0.20744 0.3676-0.29422 0.60537-0.60431 1.2164-1.2393 1.5335-0.35031 0.17463-0.40076 0.59091-0.75671 0.77012-0.40922 0.20602-0.82656 0.41522-1.1942 0.7038-0.15522 0.12206-0.37007 0.10513-0.52988 0.02399-0.66428-0.3362-1.2199-0.78317-1.2167-1.6115 0.0018-0.45085-0.19509-0.83785-0.33373-1.2354-0.1457-0.41769-0.57926-0.63218-0.94157-0.83256-0.20814-0.11536-0.48507 0.17286-0.80152 0.12171-0.30127-0.04904-0.40429 0.27376-0.44662 0.55528-0.01482 0.09878-0.0441 0.21555-0.10901 0.28293-0.65123 0.6724-1.1539 1.5106-2.014 1.9502-0.32456 0.16581-0.73096 0.1584-1.094 0.26846-1.3497 0.40887-2.7266 0.28293-4.106 0.20779-1.3808-0.07514-2.7605-0.04128-4.0732 0.48966-0.07161 0.02893-0.13053 0.09067-0.19368 0.1397-0.47131 0.36583-0.97861 0.70344-1.2428 1.2647-0.3108 0.6597-0.83291 0.98284-1.5247 1.1744-0.40676 0.11289-0.81316 0.35948-1.0784 0.73484-0.10442 0.14852-0.15064 0.33514-0.37536 0.35807-0.09031 0.0095-0.13053 0.08537-0.13335 0.17674-0.01799 0.54504-0.2854 1.0545-0.14993 1.6316 0.12242 0.52211-0.08431 0.99942-0.45791 1.3903-0.09913 0.10407-0.20849 0.19191-0.3429 0.2533-1.0216 0.46673-1.0209 0.46779-2.226 0.42722" style="stroke-width:.35278"/><path d="m25.275 29.51c-0.03034-0.12488-0.12383-0.1584-0.22296-0.1016-0.36019 0.20567-0.60537 0.51647-0.77153 0.89218-0.01411 0.03175-0.02893 0.0822-0.01411 0.10513 0.04057 0.0635 0.10407 0.04198 0.15628 0.01094 0.33479-0.19897 0.54116-0.53305 0.82304-0.78846 0.02364-0.02152 0.0194-0.07444 0.02928-0.11818m-7.94-2.1318c0.84738-0.32667 1.2753-1.0682 1.7953-1.7124 0.05891-0.07302 0.13653-0.18838 0.02893-0.26882-0.09596-0.07161-0.18838 0.012-0.26141 0.08431-0.25682 0.25506-0.54681 0.48613-0.76059 0.77365-0.27129 0.36442-0.69251 0.62971-0.80222 1.1233m14.735 5.3743c-0.0127-0.43039-0.11395-0.48825-0.52176-0.35631-0.16651 0.05362-0.29104 0.14288-0.39794 0.26423-0.3743 0.4251-0.81034 0.80116-1.0516 1.3328-0.06244 0.13758-0.26811 0.26917-0.09278 0.41452 0.15275 0.127 0.28081-0.06068 0.41875-0.13617 0.5454-0.29845 0.95039-0.78635 1.4912-1.089 0.17956-0.10054 0.15487-0.26811 0.15416-0.43004m-3.9543 2.1685c0.31785 0.02293 0.42334-0.05468 0.46355-0.25541 0.03528-0.17427-0.0021-0.375 0.15558-0.51471 0.5588-0.4946 0.77329-1.2312 1.2495-1.7851 0.0755-0.08784 0.11606-0.21872 0.13688-0.33585 0.01799-0.10301-0.02752-0.21343-0.1711-0.15381-0.11218 0.04657-0.23354 0.09913-0.31644 0.18274-0.7927 0.79728-1.7784 1.3963-2.418 2.3523-0.07479 0.11218-0.07091 0.22966 0.03775 0.23072 0.3616 0.0035 0.64594 0.2406 0.8622 0.27905m-6.4541-10.358c-0.0187-0.03492-0.02858-0.08502-0.05785-0.10195-0.09455-0.05574-0.1464 0.02575-0.19897 0.0822-0.53905 0.57715-1.0777 1.1543-1.614 1.7339-0.54716 0.59161-0.99202 1.2771-1.6637 1.7558-0.19332 0.13758-0.31962 0.36689-0.48366 0.54787-0.133 0.14711-0.16369 0.32632-0.1778 0.51012-0.01446 0.1905 0.10936 0.30304 0.25788 0.38136 0.16616 0.08714 0.28011-0.0321 0.35948-0.14605 0.57433-0.82409 1.3406-1.481 1.9234-2.3135 0.48401-0.69145 0.95674-1.4065 1.4937-2.0669 0.09208-0.11289 0.17251-0.2279 0.16157-0.38277m1.6602 0.13935c-0.20038-0.01623-0.38735 0.0187-0.53764 0.1972-0.50836 0.60361-1.0442 1.185-1.5335 1.8034-0.80399 1.0153-1.5868 2.0475-2.4733 2.9947-0.23566 0.25188-0.45897 0.51718-0.67028 0.78988-0.13688 0.17604-0.16545 0.36618 0.04198 0.5327 0.20532 0.1644 0.33937 0.0374 0.46002-0.10866 0.11606-0.14041 0.18944-0.32491 0.32456-0.43886 0.77717-0.65476 1.3568-1.4877 2.037-2.2296 0.21872-0.23813 0.35737-0.57221 0.61102-0.75177 0.84385-0.59761 1.1638-1.6496 2.0013-2.2423 0.01482-0.01058 0.02046-0.03493 0.02963-0.05292 0.06421-0.12771 0.14923-0.25718 0.05256-0.40005-0.07938-0.11677-0.20602-0.11536-0.34326-0.09384m1.487 6.7797c-0.15134-0.16051-0.3175-0.11501-0.42263 0.02611-0.22049 0.29563-0.55492 0.41487-0.8502 0.58808-0.40605 0.23813-0.52811 0.15099-0.51929-0.32738 0.0014-0.07902 0.05574-0.17992-0.02893-0.22507-0.11112-0.05927-0.18344 0.04092-0.25188 0.11395-0.06985 0.07479-0.14076 0.14923-0.20426 0.22931-0.24554 0.30974-0.5514 0.14782-0.78141 0.03492-0.2854-0.14005-0.08185-0.4004 0.0014-0.58808 0.06244-0.14041 0.18768-0.25012 0.3115-0.3616 0.47837-0.43039 1.0118-0.8121 1.4662-1.2439 0.66852-0.63571 1.4027-1.2213 1.9837-1.9466 0.4131-0.51576 0.81563-1.0449 1.0841-1.6598 0.06244-0.14323 0.11818-0.27305-0.03246-0.37924-0.13476-0.09455-0.21872 0.0388-0.31927 0.09701-1.0195 0.58808-1.5568 1.6394-2.3456 2.4494-0.22402 0.23001-0.40605 0.50059-0.64841 0.72214-0.31468 0.28716-0.61666 0.58244-0.87101 0.93945-0.25188 0.35349-0.59196 0.66605-0.92146 0.94439-0.29422 0.24871-0.60184 0.46426-0.80998 0.79658-0.08961 0.14288-0.21449 0.24871-0.38947 0.2734-0.1838 0.02575-0.37536 0.06103-0.49036-0.14323-0.10619-0.18838-0.03492-0.35913 0.08255-0.50836 0.07479-0.0949 0.17251-0.17463 0.26952-0.24906 0.59408-0.45509 0.95427-1.1532 1.6186-1.5395 0.18944-0.11007 0.30092-0.32244 0.4378-0.50095 0.25612-0.33479 0.46426-0.71191 0.78952-0.99131 0.24977-0.21484 1.0975-1.342 1.2097-1.6186 0.01517-0.03775 0.0374-0.07303 0.05151-0.11148 0.02152-0.05927 0.02928-0.13053-0.03951-0.15275-0.05257-0.01693-0.12947-0.0127-0.17533 0.01552-0.06668 0.04092-0.10936 0.11924-0.17251 0.16828-0.50412 0.39123-0.84844 0.92887-1.2774 1.3885-0.56621 0.60678-1.2647 1.0954-1.65 1.8634-0.0254 0.05115-0.0822 0.09243-0.133 0.12453-0.71473 0.44944-1.0654 1.2146-1.5826 1.8341-0.29951 0.35878-0.22155 0.59726 0.21026 0.82586 0.42087 0.22296 0.86819 0.36301 1.3504 0.35984 0.24659-0.0014 0.50518-0.02752 0.7232 0.09807 0.80363 0.46285 1.7046 0.67593 2.5661 0.97932 0.56374 0.19826 1.0926 0.49813 1.7145 0.57397 0.375 0.04586 0.46955-0.03387 0.48931-0.35913 0.0074-0.12136 0.02399-0.25365 0.139-0.32773 0.49036-0.31644 0.77012-0.87031 1.2972-1.1455 0.19297-0.10054 0.37395-0.20285 0.54752-0.35419 0.67981-0.59302 1.192-1.3593 1.9498-1.8694 0.07938-0.05327 0.13653-0.15558 0.1778-0.24695 0.20708-0.46038 0.5842-0.77224 0.94298-1.1014 0.05574-0.05115 0.16404-0.07338 0.12418-0.17674-0.04868-0.12665-0.19685-0.1263-0.25753-0.07408-0.43004 0.36971-0.98496 0.56233-1.367 1.003-0.5073 0.58597-1.0015 1.1924-1.573 1.7106-0.43462 0.39406-0.85267 0.80257-1.2587 1.2224-0.1464 0.15099-0.28646 0.30727-0.47943 0.36266-0.35208 0.10125-0.61842 0.29492-0.80751 0.60114-0.07267 0.11712-0.16828 0.18309-0.3048 0.14005-0.15416-0.04904-0.23107-0.17039-0.22366-0.32703 0.01058-0.23001 0.07197-0.44274 0.25718-0.60325 0.23107-0.20038 0.44344-0.4258 0.68898-0.60572 0.51259-0.37536 0.89606-0.88689 1.3878-1.2834 0.08502-0.06844 0.19509-0.18556 0.09102-0.31045-0.07655-0.09208-0.17639-0.01835-0.27446 0.01623-0.33938 0.11994-0.53058 0.4184-0.79764 0.62301-0.56163 0.43145-1.0449 0.94827-1.584 1.4023-0.21449 0.18098-0.39794 0.41663-0.6858 0.49213-0.30586 0.08008-0.42792-0.0254-0.36478-0.33479 0.08608-0.42369 0.20814-0.8308 0.69568-0.98002 0.17956-0.05503 0.24695-0.20003 0.22331-0.38524 0.49001-0.26529 0.99766-0.52035 1.3568-0.95462 0.46461-0.56127 1.0545-0.9892 1.5184-1.5611 0.49918-0.61525 0.92252-1.3053 1.542-1.8218 0.02893-0.02434 0.04128-0.06985 0.05786-0.10689 0.04833-0.10654 0.15028-0.22331 0.01058-0.32174-0.12912-0.09102-0.23142 0.01129-0.31539 0.09807-0.42439 0.43886-0.82727 0.9003-1.2735 1.3155-0.28928 0.26952-0.4251 0.64347-0.7105 0.90806-0.68263 0.63289-1.354 1.2778-1.9847 1.9636-0.12841 0.1397-0.23036 0.28893-0.18838 0.49319m8.3048-0.90982c0.07937 0.40217-0.09913 0.79869-0.08502 1.2086 0.0071 0.20426-0.04092 0.42686 0.0889 0.5962 0.10619 0.139 0.33267 0.21061 0.2727 0.43286-0.07338 0.27199-0.08149 0.56374-0.26635 0.80575-0.56021 0.73378-1.2778 1.3229-1.8584 2.0377-0.03669 0.0448-0.09807 0.07444-0.15381 0.09878-0.83962 0.36583-1.7025 0.77894-2.6032 0.7994-0.66958 0.01552-1.4383 0.11289-2.0595-0.3623-0.13194-0.10054-0.28646-0.13406-0.4572-0.14923-0.71156-0.06385-1.4065-0.18133-2.0366-0.56798-0.23636-0.14534-0.52776-0.21978-0.80434-0.27728-0.76165-0.15804-1.3981-0.65017-2.1643-0.78952-0.03986-0.0071-0.09455-0.0085-0.11536-0.03422-0.49354-0.61313-1.2443-0.66287-1.9212-0.84702-0.40005-0.10901-0.82515-0.10231-1.203-0.32738-0.37571-0.22402-0.82621-0.34502-0.9839-0.8248-0.74366-0.37677-0.48437-1.1857-0.75707-1.766-0.28505-0.60643-0.11783-1.2753-0.21625-1.887-0.14182-0.87913-0.07267-1.7671-0.26-2.6409-0.139-0.647-0.25929-1.3236-0.10725-1.9999 0.02681-0.11959 0.07655-0.24871 0.05468-0.36195-0.14499-0.75707 0.27058-1.2725 0.75954-1.7374 0.39476-0.37571 0.80998-0.72073 1.3903-0.82445 0.60325-0.10795 1.0834 0.08396 1.5138 0.46461 0.13794 0.12206 0.24624 0.23178 0.45262 0.26917 1.2591 0.2286 2.4836 0.58491 3.6855 1.0291 0.76236 0.28152 1.554 0.45932 2.3679 0.54857 0.41946 0.04586 0.8442 0.11994 1.2093 0.38277 0.66217 0.4759 1.4496 0.63148 2.2179 0.8308 0.26035 0.06773 0.46743-0.01905 0.65864-0.20673 0.32244-0.3168 0.46814-0.30692 0.71826 0.03175 0.10654 0.14429 0.24554 0.27728 0.2226 0.4886-0.01411 0.12982 0.04339 0.26388 0.14993 0.32032 0.56903 0.30163 0.80293 0.89924 1.2051 1.3466 0.40887 0.45544 0.63571 0.99131 0.78035 1.6111 0.17745 0.76165 0.25718 1.5194 0.3048 2.3015" style="stroke-width:.35278"/><g transform="matrix(.35278 0 0 -.35278 39.075 21.76)"><path d="m0 0c1.049 0.082 1.871 0.897 2.952 0.9 0.316 1e-3 0.613-0.033 0.774-0.279 0.225-0.344-0.157-0.504-0.339-0.673-2.136-1.977-3.634-4.575-6.116-6.223-0.44-0.292-0.69-0.872-1.054-1.355 1.401-0.183 2.162 0.843 3.073 1.441 1.617 1.061 3.464 1.813 4.749 3.353 0.339 0.407 0.772 0.696 1.284 0.863 0.537 0.176 1.271 0.766 1.585 0.308 0.452-0.658-0.587-0.763-0.912-1.144-2.404-2.806-4.804-5.616-7.507-8.155-0.488-0.458-0.946-0.851-1.554-1.001-0.73-0.181-0.988-0.49-0.659-1.216 0.141-0.312 0.129-0.696 0.283-0.998 0.32-0.63 0.871-0.864 1.409-0.34 2.394 2.333 5.417 3.832 7.882 6.096 2.016 1.853 4.377 3.314 6.924 4.409 0.213 0.091 0.415 0.219 0.635 0.281 0.289 0.08 0.592 0.077 0.738-0.255 0.109-0.249-0.049-0.439-0.216-0.607-0.976-0.982-1.992-1.931-3.004-2.866-1.476-1.363-3.062-2.619-4.788-3.701-2.568-1.609-4.409-4.045-6.583-6.104-0.655-0.62-0.265-1.119 0.206-1.627 0.473-0.512 0.692-0.438 1.354-0.033 1.402 0.858 2.605 2.038 4.205 2.607 0.797 0.284 1.449 0.921 2.095 1.503 0.96 0.865 2.099 1.441 3.326 1.799 0.573 0.168 1.333 0.449 1.676-0.351 0.293-0.684-0.126-1.164-0.694-1.595-1.32-1.003-2.687-1.933-4.101-2.793-0.943-0.574-1.918-1.119-2.412-2.158-0.372-0.783-1.434-0.731-1.742-1.6-0.164-0.46-0.779-0.874-0.154-1.33 0.54-0.395 1.279-0.904 1.833-0.125 1.174 1.651 3.126 2.091 4.655 3.179 0.479 0.342 1.005 0.556 1.62 0.542 0.508-0.011 1.039-0.064 1.353 0.535 0.179 0.342 0.57 0.455 0.878 0.162 0.398-0.38 0.178-0.791-0.18-1.022-1.627-1.048-2.795-2.599-4.255-3.825-0.266-0.223-0.635-0.355-0.676-0.737-0.041-0.388-0.677-0.727-0.288-1.047 0.267-0.22 0.713 0.164 1.049 0.398 1.843 1.289 3.508 2.801 5.272 4.184 1.816 1.423 3.795 2.629 5.921 3.563 0.323 0.142 0.71 0.338 0.95-2e-3 0.278-0.395-0.162-0.589-0.403-0.809-1.909-1.743-3.881-3.424-5.714-5.244-1.776-1.762-3.721-3.382-5.095-5.52-0.113-0.176-0.379-0.373-0.071-0.567 0.096-0.06 0.333 0.029 0.467 0.113 0.678 0.426 1.368 0.841 2.01 1.32 2.42 1.804 4.783 3.689 7.253 5.421 0.879 0.616 1.966 0.946 2.882 1.557 0.236 0.158 0.621 0.198 0.817-0.02 0.382-0.423-0.149-0.603-0.349-0.786-1.434-1.314-2.684-2.823-4.334-3.91-1.063-0.701-1.788-1.793-2.743-2.642-2.233-1.987-4.353-4.099-6.518-6.162-0.219-0.209-0.385-0.476-0.326-0.772 0.206-1.023 0.433-2.042 0.681-3.055 0.108-0.443 0.408-0.553 0.764-0.241 1.334 1.17 3.062 1.764 4.343 3.017 1.053 1.028 2.433 0.928 3.756 0.951 0.316 6e-3 0.498-0.241 0.534-0.576 0.038-0.355-0.231-0.451-0.436-0.654-2.197-2.174-4.826-3.84-7.023-6.009-0.681-0.672-0.664-1.263-0.019-1.88 0.726-0.696 1.173-0.714 1.832 0.056 0.613 0.717 1.37 1.206 2.147 1.72 2.055 1.357 4.066 2.785 6.057 4.237 0.469 0.342 0.945 0.391 1.46 0.437 0.498 0.045 0.971-0.048 1.142-0.571 0.176-0.538-0.195-0.877-0.619-1.108-1.714-0.932-2.708-2.66-4.242-3.801-0.874-0.65-1.626-1.466-2.435-2.205-0.289-0.264-0.751-0.485-0.511-0.963 0.169-0.337 0.666-0.369 0.932-0.278 1.272 0.436 2.633 0.337 3.898 0.698 0.694 0.198 1.371 0.175 2.056 0.237 0.457 0.042 1.029 0.122 1.129-0.493 0.083-0.512-0.044-1.064-0.608-1.328-0.78-0.365-1.547-0.91-2.364-1.004-1.039-0.121-1.885-0.591-2.729-1.05-3.149-1.712-6.274-1.276-8.685 0.973-1.666 1.554-3.66 3.098-4.333 5.648-0.235 0.891-0.719 1.748-0.807 2.739-0.176 2.004-0.76 3.943-1.098 5.923-0.412 2.411-1.656 4.601-3.429 6.437-1.586 1.643-3.126 3.329-4.721 4.966-1.236 1.268-2.307 2.733-2.596 4.663-0.175 1.161-0.799 2.268-1.309 3.358-0.178 0.379-0.328 0.738-0.347 1.14-0.085 1.753-0.56 3.476-0.127 5.269 0.21 0.87 0.25 1.92-0.043 2.741-0.517 1.447 5e-3 2.735 0.21 4.078 0.189 1.233 0.497 1.583 1.697 1.431 1.611-0.204 2.862 0.159 4.103 1.267 0.822 0.734 2.051 1.006 3.083 1.517 0.402 0.199 0.706 0.023 0.927-0.22 0.369-0.406-0.045-0.641-0.326-0.777-0.973-0.472-1.12-1.356-1.223-2.278-1.559 0.143-2.538-0.911-3.61-1.761-0.362-0.288-0.336-0.72-0.286-1.125 0.04-0.322 0.221-0.59 0.569-0.358 1.312 0.875 2.854 1.533 3.283 3.292"/></g><g transform="matrix(.35278 0 0 -.35278 25.455 40.66)"><path d="m0 0c1.757 0.237 3.307-0.407 4.754-1.055 3.183-1.426 6.479-2.562 9.737-3.767 1.206-0.446 2.421-1.01 3.706-1.311 0.584-0.137 0.517-0.515 0.092-0.867-0.614-0.508-1.414-0.479-1.997-0.267-1.876 0.683-3.868 0.585-5.776 1.045-2.479 0.599-4.835 1.582-7.327 2.122-2.353 0.509-4.575 0.184-6.736-0.819-1.112-0.515-1.484-1.422-1.365-2.547 0.079-0.742 0.152-1.554 0.497-2.187 0.925-1.701 1.081-3.583 1.543-5.397 0.227-0.893-0.029-1.723-2e-3 -2.579 0.022-0.693-0.435-0.854-0.939-1.043-0.713-0.267-0.791 0.357-0.943 0.719-0.649 1.547-1.357 3.086-1.504 4.786-0.094 1.081-0.936 1.712-1.498 2.461-1.04 1.385-1.201 3.096-1.981 4.564-0.229 0.43 0.12 0.894 0.352 1.297 0.461 0.801 0.965 1.579 1.39 2.398 0.525 1.011 1.66 1.203 2.473 1.401 1.831 0.446 3.647 1.15 5.524 1.046"/></g><g transform="matrix(.35278 0 0 -.35278 21.22 19.28)"><path d="m0 0c1.151 0.129 2.184-0.294 3.175-0.752 3.24-1.495 6.74-2.338 9.916-3.997 0.977-0.51 2.061-0.75 3.181-0.794 0.516-0.02 1.048-0.075 1.538-0.226 0.363-0.112 0.814-0.347 0.79-0.8-0.021-0.417-0.531-0.473-0.821-0.509-2.838-0.352-5.673-1.345-8.542-0.502-2.739 0.805-5.442 1.765-7.963 3.141-0.378 0.206-0.773 0.211-1.146 0.349-1.323 0.487-2.024 2.058-1.832 3.42 0.138 0.975 1.054 0.649 1.704 0.67"/></g><g transform="matrix(.35278 0 0 -.35278 10.886 21.01)"><path d="m0 0c-0.078-0.527 0.267-1.39-0.22-1.562-0.737-0.261-0.991 0.61-1.255 1.15-1.425 2.917-3.853 4.318-6.929 5.095-1.966 0.497-3.92 0.865-5.922 1.097-0.415 0.049-0.773 0.089-1.166-0.071-0.646-0.263-1.212-0.226-1.68 0.416-0.603 0.829-0.83 2.056-0.408 2.779 0.397 0.68 1.055 0.904 1.781 0.835 0.976-0.094 1.991-0.082 2.923-0.289 2.738-0.608 5.588-0.954 8.099-2.274 2.832-1.49 5.091-3.506 4.777-7.176"/></g><g transform="matrix(.35278 0 0 -.35278 17.151 18.89)"><path d="m0 0c0.812 0 1.626 0.02 2.437-8e-3 0.403-0.014 0.862-0.013 1.19-0.202 0.582-0.336 1.346-0.693 1.354-1.443 0.01-0.817-0.776-1.059-1.445-1.271-0.614-0.194-1.252-0.216-1.893-0.225-1.794-0.025-3.58-0.041-4.941-1.532-0.369-0.403-0.962-0.294-1.49-0.276-1.175 0.041-1.92-0.309-2.007-1.364-0.082-0.984-0.795-1.627-0.909-2.555-0.115-0.935-0.999-0.838-1.642-0.839-0.618-2e-3 -0.873 0.516-0.87 1.098 0.013 2.582 0.588 4.989 2.075 7.162 0.416 0.607 0.919 0.851 1.56 0.944 2.182 0.316 4.366 0.63 6.581 0.511"/></g></g></svg>
